<?xml version="1.0" standalone="no"?>
<!DOCTYPE svg PUBLIC "-//W3C//DTD SVG 20010904//EN"
 "http://www.w3.org/TR/2001/REC-SVG-20010904/DTD/svg10.dtd">
<svg version="1.0" xmlns="http://www.w3.org/2000/svg"
 width="4167.000000pt" height="4167.000000pt" viewBox="0 0 4167.000000 4167.000000"
 preserveAspectRatio="xMidYMid meet">
<metadata>
Created by potrace 1.14, written by Peter Selinger 2001-2017
</metadata>
<g transform="translate(0.000000,4167.000000) scale(0.100000,-0.100000)"
fill="#000000" stroke="none">
<path d="M16660 40916 c0 -53 6 -129 14 -169 8 -40 22 -112 31 -162 9 -49 19
-100 21 -112 2 -12 36 -178 75 -370 38 -191 72 -357 74 -368 16 -88 46 -243
50 -255 2 -8 6 -33 10 -55 3 -22 10 -65 15 -95 5 -30 12 -73 15 -95 3 -22 7
-51 10 -65 3 -22 18 -131 30 -222 2 -18 7 -58 10 -88 3 -30 8 -66 10 -80 2
-14 7 -61 11 -105 3 -44 8 -87 9 -96 2 -8 6 -74 10 -145 3 -71 8 -149 10 -174
26 -287 25 -1670 0 -2010 -3 -36 -7 -119 -11 -185 -3 -66 -7 -142 -9 -170 -2
-27 -7 -90 -10 -140 -4 -49 -8 -106 -10 -125 -2 -19 -6 -73 -10 -120 -4 -47
-9 -96 -10 -110 -3 -26 -16 -166 -20 -210 -1 -14 -5 -47 -9 -75 -4 -27 -8 -73
-11 -100 -2 -28 -6 -64 -9 -80 -5 -32 -6 -43 -31 -250 -9 -71 -18 -141 -20
-155 -6 -45 -14 -104 -20 -155 -3 -27 -8 -61 -10 -75 -2 -14 -6 -47 -10 -75
-8 -67 -15 -115 -20 -145 -2 -14 -7 -45 -10 -70 -3 -25 -10 -74 -15 -110 -6
-36 -12 -82 -15 -102 -14 -104 -19 -142 -35 -243 -5 -33 -12 -82 -15 -110 -4
-27 -8 -57 -10 -65 -2 -8 -7 -37 -11 -65 -3 -27 -8 -59 -10 -70 -2 -11 -7 -40
-10 -65 -3 -25 -8 -54 -10 -65 -5 -24 -11 -57 -19 -105 -3 -19 -22 -114 -41
-210 -19 -96 -37 -186 -40 -200 -3 -14 -7 -33 -10 -42 -3 -9 -6 -25 -8 -35
-45 -229 -232 -893 -252 -893 -43 0 -164 165 -180 245 -30 153 -35 335 -18
675 16 341 10 1165 -11 1460 -2 30 -7 100 -10 155 -3 55 -8 111 -10 125 -3 24
-9 89 -20 224 -3 33 -7 67 -9 75 -3 9 -7 51 -11 93 -3 42 -7 85 -9 95 -2 10
-7 45 -10 78 -4 33 -9 71 -11 85 -3 14 -7 50 -10 80 -3 30 -7 71 -10 90 -3 19
-7 55 -9 80 -3 25 -7 61 -10 80 -3 19 -8 58 -11 85 -18 153 -56 383 -84 512
-67 307 -240 868 -348 1128 -92 222 -270 571 -396 780 -193 318 -453 693 -627
905 -21 25 -67 86 -103 135 -37 50 -71 95 -76 101 -4 6 -26 35 -47 65 -96 134
-179 236 -209 257 -32 23 -97 33 -113 18 -3 -4 -6 -35 -5 -69 2 -92 105 -431
299 -977 213 -603 296 -849 385 -1145 108 -358 237 -891 305 -1255 2 -14 7
-36 9 -50 3 -14 8 -38 10 -55 3 -16 10 -52 15 -80 16 -83 41 -228 46 -265 2
-19 8 -57 13 -85 6 -27 13 -72 17 -100 4 -27 8 -57 10 -65 5 -26 14 -93 19
-141 3 -26 8 -57 10 -69 2 -12 7 -48 11 -79 3 -31 8 -63 9 -71 2 -9 6 -43 10
-75 4 -33 9 -71 11 -85 2 -14 6 -50 9 -80 3 -30 10 -89 15 -130 14 -115 19
-159 25 -230 3 -36 8 -81 10 -100 7 -55 15 -150 19 -215 2 -33 7 -94 10 -135
28 -355 38 -717 36 -1385 -1 -889 -14 -1238 -61 -1620 -5 -44 -12 -96 -14
-115 -2 -19 -7 -53 -9 -75 -3 -22 -13 -94 -21 -160 -24 -188 -39 -303 -50
-375 -2 -14 -6 -47 -10 -75 -3 -27 -7 -59 -9 -70 -2 -11 -7 -47 -12 -80 -4
-33 -8 -62 -9 -65 -1 -3 -5 -34 -9 -70 -5 -36 -10 -74 -12 -85 -2 -11 -6 -38
-9 -60 -10 -77 -16 -121 -30 -205 -8 -47 -17 -103 -20 -125 -14 -84 -17 -98
-46 -182 -37 -106 -35 -102 -57 -96 -14 3 -21 21 -30 81 -6 42 -13 86 -16 97
-2 11 -13 79 -25 150 -23 148 -29 222 -36 530 -3 121 -8 261 -10 310 -12 218
-20 347 -30 445 -2 25 -7 74 -10 110 -4 36 -8 76 -10 90 -2 14 -6 50 -10 81
-3 31 -7 65 -9 75 -2 11 -7 44 -11 74 -4 30 -9 64 -12 75 -2 11 -6 31 -7 45
-8 59 -26 147 -91 440 -25 116 -150 507 -190 595 -7 17 -22 53 -33 80 -142
360 -512 937 -969 1510 -91 114 -196 213 -226 215 -20 0 3 -226 32 -326 110
-377 259 -841 328 -1024 14 -36 27 -72 29 -80 4 -14 171 -517 182 -550 3 -8 6
-17 7 -20 0 -3 9 -32 19 -65 10 -33 20 -67 21 -75 2 -8 13 -46 25 -85 43 -148
116 -434 146 -575 3 -13 14 -60 24 -105 10 -44 21 -100 25 -125 4 -24 8 -47
10 -51 2 -3 7 -21 10 -40 8 -44 44 -248 49 -274 2 -11 7 -40 11 -65 4 -25 9
-53 11 -62 1 -9 10 -67 19 -128 9 -61 18 -119 20 -129 2 -10 6 -42 10 -71 4
-29 8 -60 10 -69 1 -9 6 -45 10 -81 3 -36 8 -72 10 -80 2 -8 6 -42 10 -75 3
-33 8 -71 10 -85 2 -14 6 -52 10 -85 3 -33 8 -71 10 -85 2 -14 6 -56 10 -95 3
-38 8 -89 10 -112 3 -24 7 -62 9 -85 3 -24 8 -77 11 -118 3 -41 8 -97 10 -125
2 -27 7 -93 10 -145 4 -52 8 -106 11 -120 24 -151 24 -1066 -1 -1445 -15 -230
-19 -277 -30 -395 -2 -25 -7 -74 -10 -110 -3 -36 -8 -87 -11 -115 -3 -27 -7
-66 -9 -85 -8 -92 -16 -170 -19 -187 -2 -10 -7 -53 -10 -95 -4 -42 -8 -85 -10
-95 -2 -10 -7 -48 -10 -85 -4 -37 -9 -77 -11 -90 -2 -13 -6 -54 -10 -91 -3
-37 -8 -77 -10 -87 -2 -10 -6 -47 -10 -82 -3 -35 -8 -74 -10 -88 -3 -14 -7
-52 -10 -85 -3 -33 -7 -69 -9 -80 -2 -11 -7 -51 -10 -90 -4 -38 -9 -77 -11
-85 -2 -8 -6 -45 -10 -82 -3 -37 -8 -77 -10 -90 -2 -13 -6 -50 -10 -83 -7 -67
-33 -133 -64 -167 -27 -28 -25 -30 -135 137 -133 204 -171 255 -238 325 l-63
65 -3 -30 c-1 -16 -9 -66 -17 -110 -14 -79 -22 -154 -30 -290 -10 -175 -15
-258 -20 -370 -3 -66 -7 -147 -10 -180 -3 -33 -7 -100 -10 -150 -6 -105 -13
-200 -20 -270 -3 -27 -7 -77 -10 -110 -11 -118 -16 -171 -20 -205 -2 -19 -7
-64 -10 -100 -3 -36 -8 -81 -11 -100 -2 -19 -7 -60 -9 -90 -6 -69 -22 -223
-30 -280 -2 -14 -6 -54 -10 -90 -8 -83 -15 -156 -21 -200 -2 -19 -6 -60 -9
-90 -4 -30 -12 -109 -20 -175 -8 -66 -17 -147 -20 -180 -3 -33 -8 -71 -10 -85
-2 -14 -7 -56 -11 -95 -3 -38 -8 -72 -9 -75 -2 -3 -6 -39 -10 -80 -3 -41 -8
-86 -10 -100 -2 -14 -7 -50 -10 -80 -3 -30 -8 -68 -11 -85 -3 -16 -7 -43 -10
-60 -7 -43 -13 -76 -19 -105 -2 -13 -7 -40 -10 -60 -3 -20 -8 -47 -10 -60 -5
-26 -20 -117 -29 -180 -5 -37 -14 -151 -21 -285 -6 -108 -7 -605 0 -730 6
-124 13 -241 20 -320 3 -33 8 -87 10 -120 9 -97 17 -176 30 -280 3 -27 8 -66
10 -85 8 -64 17 -135 21 -155 2 -11 6 -42 9 -70 3 -27 10 -79 16 -115 6 -36
13 -78 15 -95 3 -16 18 -113 35 -214 17 -102 31 -216 33 -255 3 -74 -10 -176
-22 -176 -10 0 -31 43 -87 170 -41 93 -107 220 -182 350 -38 67 -206 311 -266
388 -86 111 -316 392 -337 412 -3 3 -63 71 -132 151 -70 81 -133 153 -140 160
-7 8 -63 70 -123 139 -247 281 -379 391 -517 434 l-78 24 5 -84 c2 -45 7 -95
11 -111 8 -34 114 -352 189 -568 31 -88 60 -171 65 -185 4 -14 54 -149 110
-300 56 -151 114 -309 129 -350 45 -119 329 -875 340 -901 5 -13 38 -100 71
-194 34 -93 66 -179 70 -190 25 -59 217 -626 248 -735 6 -19 29 -98 52 -175
23 -77 45 -153 50 -170 22 -79 52 -192 55 -205 2 -8 20 -76 39 -150 61 -241
131 -570 171 -805 3 -16 7 -39 9 -50 2 -11 9 -55 16 -98 6 -43 13 -88 15 -100
12 -72 46 -348 51 -422 2 -27 7 -72 10 -100 10 -86 13 -687 3 -760 -21 -167
-22 -176 -51 -254 -19 -54 -93 -208 -137 -285 -100 -176 -297 -414 -560 -677
-158 -157 -180 -177 -217 -182 -43 -7 -87 -35 -104 -67 -6 -11 -17 -54 -25
-97 -8 -43 -17 -87 -19 -99 -2 -12 -7 -45 -10 -75 -26 -227 -30 -233 -175
-278 -88 -28 -225 -66 -268 -76 -10 -2 -74 -18 -143 -35 -69 -18 -132 -33
-140 -35 -51 -11 -368 -93 -490 -126 -205 -57 -538 -169 -637 -214 -17 -8 -34
-15 -37 -15 -3 0 -25 -8 -49 -19 -23 -10 -130 -53 -237 -96 -441 -176 -649
-278 -855 -418 -33 -23 -62 -44 -65 -47 -3 -4 -12 -11 -21 -16 -22 -12 -77
-56 -163 -129 -116 -97 -132 -112 -314 -290 -465 -452 -575 -567 -700 -737
-49 -66 -147 -226 -156 -254 -3 -11 -50 -60 -104 -109 -96 -87 -249 -229 -386
-356 -39 -36 -100 -92 -136 -124 -36 -32 -83 -74 -105 -94 -22 -20 -105 -88
-185 -152 -161 -128 -233 -201 -281 -285 -18 -31 -81 -107 -142 -168 -200
-202 -339 -380 -494 -631 -99 -160 -242 -496 -267 -626 -2 -13 -10 -46 -16
-74 -18 -77 -25 -159 -25 -295 0 -152 7 -217 34 -336 27 -119 30 -126 51 -119
10 3 27 8 38 10 32 6 511 168 662 223 131 48 389 149 460 179 19 8 44 19 55
23 402 170 738 346 1108 581 204 130 301 185 422 239 102 46 135 59 135 54 0
-2 9 0 21 6 20 11 230 88 259 95 8 2 47 13 85 25 109 32 298 70 421 85 22 3
55 7 74 10 19 2 82 7 139 10 57 4 120 9 140 11 83 10 482 11 556 2 74 -9 227
-38 470 -88 55 -12 111 -23 125 -26 14 -2 36 -7 50 -9 14 -3 39 -8 55 -10 17
-3 53 -10 80 -15 67 -13 103 -19 145 -26 19 -3 42 -7 51 -10 9 -2 32 -7 50 -9
19 -3 45 -7 59 -10 38 -9 121 -25 155 -31 17 -3 80 -16 140 -30 61 -14 124
-27 140 -30 17 -3 36 -7 44 -10 11 -3 115 -26 232 -49 24 -5 158 -29 214 -39
59 -10 241 -36 295 -42 30 -3 66 -7 80 -10 14 -2 66 -7 115 -10 50 -3 106 -8
125 -11 19 -2 346 -6 725 -7 380 -2 733 -6 785 -10 52 -3 138 -8 190 -11 52
-3 120 -8 150 -10 103 -10 243 -24 290 -30 19 -2 60 -7 90 -10 30 -3 71 -8 90
-10 19 -3 67 -7 105 -10 39 -3 86 -8 105 -10 19 -3 68 -7 109 -10 41 -2 97 -7
125 -9 116 -11 178 -16 421 -31 50 -3 115 -8 145 -10 30 -2 105 -7 165 -10 61
-3 137 -8 170 -10 33 -3 103 -7 155 -10 52 -3 129 -7 170 -9 41 -3 125 -7 185
-11 61 -3 146 -7 190 -10 181 -10 295 -16 385 -20 108 -5 262 -13 365 -20 39
-2 124 -7 191 -10 67 -3 132 -8 145 -10 13 -2 60 -9 104 -15 107 -15 133 -19
180 -30 22 -5 56 -11 75 -14 19 -4 53 -10 75 -16 387 -92 638 -172 945 -303
91 -38 435 -206 765 -372 330 -166 645 -318 700 -339 183 -69 398 -128 550
-151 17 -3 48 -8 70 -11 22 -4 342 -8 710 -9 369 -1 702 -5 740 -9 181 -18
224 -24 280 -36 22 -5 54 -11 70 -14 61 -11 232 -64 325 -101 221 -88 456
-233 630 -390 24 -22 78 -71 120 -110 41 -38 97 -90 125 -115 196 -178 291
-274 311 -313 18 -33 16 -100 -11 -347 -3 -30 -8 -62 -10 -70 -2 -8 -6 -40
-10 -70 -3 -30 -10 -84 -14 -120 -9 -69 -6 -337 3 -380 3 -14 9 -41 12 -60 10
-57 53 -180 90 -254 78 -156 74 -118 89 -802 3 -132 7 -249 9 -260 2 -10 7
-41 11 -69 13 -91 81 -250 302 -701 29 -60 62 -98 102 -119 29 -14 56 -20 158
-30 88 -9 193 -50 263 -105 150 -115 341 -154 510 -105 67 20 219 28 278 14
24 -5 85 -26 135 -45 116 -46 206 -64 310 -65 72 0 101 2 182 16 155 25 344
118 461 227 75 71 111 120 142 196 l21 53 -22 -6 c-34 -11 -111 -61 -232 -151
-148 -111 -223 -146 -315 -149 -9 0 -33 36 -60 90 -25 50 -56 105 -68 123 -28
39 -81 68 -142 77 -25 3 -54 8 -65 10 -11 2 -34 4 -52 4 l-32 1 4 73 c5 96 7
150 6 160 -3 20 -80 -48 -97 -86 -28 -62 -70 -122 -101 -143 -19 -12 -47 -18
-83 -18 -49 -1 -73 8 -210 76 -121 60 -175 93 -245 152 -123 103 -190 139
-336 180 -79 22 -103 44 -101 91 2 46 43 110 85 131 49 26 108 22 296 -22 90
-22 186 -24 246 -7 28 8 93 35 145 59 63 30 102 43 117 39 21 -5 51 -18 168
-70 51 -23 238 -101 275 -115 19 -7 49 -19 65 -26 98 -43 213 -51 275 -19 46
24 134 117 119 126 -7 4 -37 -2 -68 -12 -98 -34 -181 -25 -300 34 -96 48 -126
83 -146 170 -8 39 -27 121 -42 180 -18 75 -23 111 -16 118 6 6 33 13 59 15
184 17 267 42 343 102 46 37 91 120 91 168 l0 26 -47 -34 c-62 -44 -147 -86
-211 -102 -58 -16 -169 -14 -212 4 l-30 12 2 102 c1 124 -8 158 -72 265 -27
46 -50 87 -50 92 0 22 101 135 154 173 72 51 128 73 211 84 106 14 164 -1 460
-114 51 -20 -107 176 -176 219 -30 18 -146 54 -204 62 -174 25 -366 -24 -499
-129 -59 -47 -49 -36 -151 -151 -138 -155 -176 -194 -232 -232 -45 -31 -56
-35 -63 -23 -49 79 -90 121 -170 172 -58 37 -98 70 -116 98 l-27 41 20 27 c11
15 43 40 72 55 48 26 62 29 184 33 174 7 229 22 287 82 95 99 91 179 -20 375
-17 32 -31 59 -29 61 18 14 145 34 203 32 139 -6 314 -87 443 -207 62 -58 133
-86 133 -53 0 22 -68 144 -112 201 -160 208 -423 301 -673 238 -62 -16 -225
-93 -225 -106 0 -4 -9 -10 -20 -14 -11 -3 -41 -27 -67 -51 -27 -25 -68 -60
-93 -77 -25 -17 -53 -39 -63 -48 -26 -24 -210 -113 -287 -140 -122 -41 -180
-35 -211 22 -15 30 -23 129 -22 304 0 228 11 367 48 640 4 28 13 82 34 210 17
104 20 282 7 345 -3 14 -8 39 -12 55 -3 17 -22 84 -42 150 -30 98 -36 135 -36
205 0 47 5 94 12 106 6 11 13 32 16 45 3 13 18 62 35 109 37 104 77 250 85
310 21 148 89 225 204 231 59 4 71 31 42 90 -52 103 -164 227 -315 349 -44 35
-89 75 -101 89 -47 55 -60 72 -93 118 -91 126 -120 159 -187 214 -40 33 -87
80 -103 105 -31 45 -37 59 -23 51 4 -3 43 -8 87 -12 44 -3 94 -9 112 -11 30
-5 34 -1 60 43 32 55 27 54 143 16 41 -14 105 -31 142 -39 37 -7 89 -23 115
-35 89 -40 138 -55 176 -53 21 1 41 4 44 8 3 3 -6 20 -20 39 -64 84 -71 181
-20 297 40 93 45 98 81 104 17 3 47 8 65 11 171 28 203 39 283 93 71 48 111
61 184 62 55 1 86 -5 255 -54 165 -48 347 -70 565 -70 114 1 279 10 342 19 18
2 71 9 118 15 47 6 99 13 115 16 17 2 44 6 60 9 17 2 50 7 75 10 148 22 463
106 805 215 72 23 189 59 260 80 164 47 185 57 267 117 62 47 143 89 192 99
11 3 73 7 136 9 202 7 365 15 390 19 14 2 54 7 90 11 75 7 113 12 190 25 30 5
71 12 90 15 19 3 42 8 50 10 8 2 31 7 50 10 135 21 334 80 404 119 73 41 127
89 183 166 66 91 103 105 358 136 22 3 81 12 130 20 50 8 104 17 120 20 17 2
41 7 55 9 14 3 34 7 45 9 18 4 98 22 135 31 62 15 200 55 220 64 23 10 122 39
345 101 44 12 87 23 95 25 8 2 35 8 60 15 25 7 52 13 60 15 8 2 49 13 90 25
41 11 82 23 91 25 44 10 113 52 149 92 39 41 42 48 38 91 -3 26 -8 54 -12 63
-5 12 14 28 86 71 178 106 231 131 301 144 80 14 232 72 452 174 50 22 99 45
110 50 11 5 54 24 95 43 125 57 179 135 184 267 6 121 35 198 101 262 58 56
121 85 257 118 291 70 532 173 764 327 l81 53 -7 44 c-3 24 -6 88 -6 143 2
151 21 172 192 203 168 30 212 57 348 214 60 70 167 155 246 197 53 28 182
117 192 133 12 18 3 31 -25 33 -52 4 -106 47 -108 87 -3 52 31 130 90 209 23
29 41 58 41 64 0 5 -53 26 -117 47 -65 21 -169 62 -231 93 -211 102 -231 106
-582 106 -224 0 -264 2 -328 20 -71 20 -72 21 -55 40 36 39 158 88 258 103
139 21 222 46 276 85 29 20 30 23 24 77 -14 122 -11 117 -80 129 -57 10 -101
10 -200 -2 -90 -11 -192 -12 -230 -2 l-30 9 25 13 c44 25 113 44 178 49 73 7
135 31 251 100 84 50 98 67 116 138 6 22 2 27 -27 37 -18 7 -53 14 -78 17
-145 16 -255 55 -342 121 -31 24 -60 43 -64 43 -4 0 -15 7 -24 15 -19 17 -109
51 -156 58 -17 3 -83 -6 -145 -19 -172 -36 -208 -42 -314 -49 -42 -3 -111 -19
-170 -39 -113 -39 -130 -43 -206 -52 -107 -13 -137 -12 -239 12 -20 5 -7 13
75 44 55 21 195 74 310 117 323 123 358 139 378 172 33 56 27 62 -67 56 l-84
-5 -11 31 c-17 50 -13 76 24 164 20 45 37 95 38 110 2 26 -3 30 -68 52 -78 26
-229 67 -290 78 -45 8 -85 16 -100 19 -5 2 -32 6 -60 10 -27 4 -72 11 -100 16
-27 5 -70 11 -95 14 -136 17 -241 31 -320 42 -25 4 -51 7 -58 7 -21 1 -44 56
-43 106 0 52 13 93 65 202 40 85 43 99 21 99 -25 0 -88 36 -116 67 -15 15 -43
54 -63 85 -54 86 -89 108 -178 113 -40 2 -82 6 -93 9 -116 24 -348 26 -485 3
-68 -11 -150 -15 -287 -14 -105 1 -194 4 -196 7 -3 3 -8 32 -11 65 -17 195
-73 333 -189 466 -41 47 -87 93 -103 104 -16 10 -35 24 -41 31 -17 17 -109 51
-155 57 -20 2 -76 -2 -125 -9 -48 -7 -153 -16 -233 -19 -199 -7 -331 -14 -357
-19 -12 -3 -61 -7 -110 -11 l-88 -6 -32 69 c-50 105 -137 185 -299 273 -32 18
-83 47 -112 66 -59 37 -98 42 -346 47 -219 4 -311 -18 -539 -129 -399 -194
-625 -344 -1072 -709 -93 -77 -175 -145 -181 -150 -6 -6 -32 -29 -59 -51 -149
-124 -367 -308 -575 -487 -80 -68 -156 -133 -169 -144 -13 -10 -29 -24 -36
-31 -7 -7 -62 -54 -121 -104 -60 -50 -111 -94 -114 -98 -10 -12 -96 -78 -184
-141 -49 -35 -137 -111 -196 -169 -59 -58 -147 -142 -195 -186 -49 -44 -96
-87 -106 -97 -31 -30 -322 -263 -399 -320 -41 -30 -183 -131 -315 -223 -132
-93 -258 -182 -280 -198 -68 -49 -306 -216 -377 -263 -37 -25 -95 -56 -128
-69 l-60 -24 -1 22 c-3 61 -22 167 -37 208 -6 14 -34 46 -62 71 l-52 45 75
274 c104 382 121 467 121 619 -1 152 -25 251 -89 364 -42 73 -123 187 -183
256 -16 19 -55 64 -87 100 -112 129 -132 190 -89 275 38 74 132 187 195 233
110 81 154 189 125 305 -4 18 7 36 55 86 33 34 58 65 55 68 -2 3 -1 16 4 29
19 48 23 81 25 204 6 251 -50 367 -365 760 -171 212 -179 234 -126 327 17 31
63 88 101 128 39 39 122 139 185 220 128 165 232 275 330 350 95 72 142 130
184 228 21 50 22 61 20 352 -2 165 -5 311 -8 325 -3 14 -9 45 -12 70 -9 70
-62 220 -94 270 -9 14 -20 33 -23 43 -12 31 -84 132 -137 191 -59 64 -139 127
-220 173 -75 43 -100 68 -100 102 0 16 31 93 69 172 72 149 115 279 156 476
20 92 73 276 109 375 30 83 52 193 50 248 -7 132 -53 335 -103 444 -96 212
-273 357 -531 437 -58 17 -140 45 -182 62 l-77 30 21 41 c12 22 21 43 20 46 0
3 7 21 15 40 8 19 19 49 24 65 4 17 22 75 39 129 17 55 33 120 36 145 2 26 7
53 9 61 2 8 9 56 15 105 6 50 13 101 15 115 2 14 6 48 10 75 6 47 8 65 21 140
4 25 24 123 40 200 17 78 3 220 -32 322 -123 364 -327 553 -624 577 -175 14
-250 49 -250 116 0 26 86 198 146 292 93 145 109 197 100 335 -8 123 -19 195
-62 388 -2 11 -7 34 -10 50 -3 17 -11 55 -19 85 -8 30 -16 66 -19 80 -43 198
-89 329 -163 463 -81 147 -159 228 -278 286 -122 59 -151 64 -428 66 -136 2
-251 5 -254 8 -27 27 161 309 424 635 152 189 179 228 192 284 16 71 14 121
-9 189 -19 54 -167 361 -219 452 -11 20 -29 52 -39 70 -62 109 -58 221 12 342
48 81 158 290 298 565 209 408 276 521 385 640 33 36 81 102 107 148 27 45 65
99 86 120 30 30 51 70 103 202 274 697 463 1345 467 1605 1 59 3 195 4 330 0
109 -8 263 -19 355 -2 19 -7 60 -10 90 -3 30 -8 84 -11 120 -4 36 -8 72 -10
80 -1 8 -3 18 -3 23 -2 15 -215 7 -286 -12 -172 -45 -285 -110 -525 -302 -96
-77 -182 -143 -190 -147 -15 -6 -30 -18 -87 -66 -44 -38 -107 -134 -134 -206
-20 -52 -61 -228 -88 -370 -30 -163 -66 -309 -88 -357 -23 -51 -39 -67 -40
-40 0 6 -6 39 -13 72 -19 85 -19 85 -27 140 -17 119 -8 192 46 354 28 84 53
163 55 175 3 11 14 53 24 91 81 289 129 484 146 590 2 17 8 50 12 75 4 25 8
54 10 65 32 235 78 423 140 573 19 45 34 91 34 103 0 29 88 276 115 324 21 37
46 127 61 220 3 21 8 47 10 59 6 30 72 404 79 446 3 19 8 42 10 50 2 8 6 38
10 65 3 28 8 57 10 65 2 8 6 38 10 65 3 28 8 57 10 65 2 8 6 35 9 60 3 25 8
56 11 69 2 12 7 42 9 65 3 22 12 88 20 146 32 221 38 443 22 787 -7 148 -8
164 -22 228 -8 35 -60 115 -76 115 -38 0 -210 -130 -319 -242 -80 -82 -121
-133 -249 -313 -70 -99 -66 -93 -344 -490 -138 -198 -282 -403 -319 -455 -36
-52 -71 -102 -77 -110 -140 -204 -194 -271 -235 -295 -95 -56 -120 -102 -226
-409 -62 -180 -121 -302 -140 -290 -3 2 -14 32 -24 66 -29 98 -24 496 10 857
6 61 10 97 20 161 2 14 7 48 10 75 14 109 79 367 144 573 59 184 77 243 97
317 12 44 74 313 80 345 2 14 20 88 39 165 41 160 36 142 60 220 10 33 19 65
21 70 2 9 57 146 89 220 20 46 60 149 60 155 0 3 8 25 17 50 16 44 63 212 72
260 2 14 18 79 35 145 16 66 32 131 35 145 3 14 7 36 10 50 3 14 10 50 16 80
12 63 18 95 25 130 3 14 7 45 10 70 3 25 7 56 9 70 6 33 23 200 31 310 21 300
24 427 12 504 -4 27 -10 53 -12 56 -2 4 -6 51 -9 104 -5 91 -12 178 -21 251
-2 17 -9 55 -16 85 -16 75 -17 97 -8 144 5 23 11 77 14 121 3 44 12 103 20
130 17 62 28 125 21 125 -22 0 -120 -69 -179 -126 -121 -118 -187 -195 -262
-309 -77 -118 -102 -171 -340 -739 -97 -231 -305 -704 -418 -946 -19 -41 -49
-108 -67 -149 -17 -40 -46 -105 -65 -145 -18 -39 -92 -204 -165 -366 -72 -162
-140 -313 -149 -335 -10 -22 -62 -139 -116 -260 -54 -121 -111 -249 -127 -285
-17 -36 -49 -108 -73 -160 -61 -136 -96 -210 -155 -335 -29 -60 -66 -139 -82
-175 -41 -88 -322 -651 -388 -775 -29 -55 -73 -138 -97 -185 -71 -133 -104
-178 -143 -194 -19 -8 -36 -13 -38 -11 -20 19 -18 256 3 405 2 14 7 50 11 80
4 30 9 65 11 77 2 13 5 33 7 45 12 68 42 173 99 348 88 267 194 609 203 659 3
14 7 28 10 33 10 16 77 256 116 413 21 88 59 223 83 300 45 143 91 301 100
339 2 11 9 39 15 61 6 22 13 51 16 65 2 14 9 39 14 55 5 17 11 41 14 55 2 14
14 66 26 115 12 50 24 101 26 115 3 14 12 59 21 100 8 41 17 86 20 100 2 14
15 81 28 150 13 69 26 143 30 165 9 49 13 71 20 110 5 32 24 143 30 185 2 14
9 52 15 85 6 33 13 78 15 100 3 22 10 65 15 95 5 30 12 78 15 105 3 28 7 60 9
72 7 33 15 151 21 303 3 74 8 153 10 175 2 22 6 81 10 130 4 50 9 97 10 106 9
45 19 207 19 299 0 130 -13 493 -19 540 -2 19 -7 64 -9 100 -6 74 -14 151 -20
195 -3 17 -8 57 -12 90 -4 33 -8 62 -9 65 -1 3 -5 25 -9 50 -11 62 -12 64 -31
165 -21 112 -20 106 -28 130 -3 11 -8 31 -11 45 -7 39 -35 143 -44 165 -24 59
-95 194 -115 219 l-24 29 -35 -74 c-49 -104 -84 -213 -198 -614 -39 -137 -78
-272 -85 -300 -8 -27 -31 -108 -50 -180 -20 -71 -45 -159 -55 -195 -11 -36
-31 -110 -45 -165 -15 -55 -36 -134 -47 -175 -10 -41 -21 -83 -23 -93 -2 -10
-7 -27 -10 -37 -3 -10 -8 -27 -10 -37 -4 -17 -98 -399 -112 -453 -3 -14 -7
-29 -9 -35 -1 -5 -12 -53 -24 -105 -12 -52 -23 -99 -24 -105 -2 -5 -6 -21 -9
-35 -4 -14 -36 -144 -72 -290 -36 -146 -70 -279 -76 -296 -5 -17 -11 -40 -14
-50 -2 -10 -25 -91 -50 -179 -49 -168 -59 -205 -74 -257 -56 -205 -393 -1309
-455 -1488 -2 -8 -35 -109 -72 -225 -176 -553 -552 -1649 -656 -1915 -16 -41
-31 -82 -33 -90 -9 -37 -118 -272 -278 -600 -80 -163 -150 -258 -168 -229 -5
8 -9 21 -9 29 0 8 -7 33 -14 55 -11 31 -14 86 -10 250 2 116 6 224 9 240 2 17
7 62 10 101 3 39 7 81 10 94 2 13 7 46 10 74 3 28 8 60 10 71 4 20 12 71 21
134 2 18 15 81 29 140 13 58 26 120 29 136 9 58 16 111 21 160 3 28 10 82 15
120 11 82 17 129 25 205 4 30 8 66 10 80 2 14 6 50 10 80 4 30 8 66 10 80 2
14 6 50 10 80 4 30 8 66 10 80 2 14 11 75 20 135 8 61 18 126 21 145 35 244
42 326 50 615 12 386 5 1151 -11 1345 -2 19 -6 98 -10 175 -3 77 -8 156 -11
175 -2 19 -6 69 -9 111 -2 41 -7 95 -9 120 -3 24 -8 73 -11 109 -4 36 -8 81
-11 100 -2 19 -6 60 -9 90 -7 63 -13 119 -20 170 -3 19 -7 51 -10 70 -2 19 -6
52 -9 73 -3 20 -8 54 -11 75 -6 44 -16 109 -21 137 -2 11 -7 40 -10 65 -10 80
-72 362 -103 470 -45 158 -63 212 -126 370 -95 241 -199 437 -458 865 -111
184 -152 242 -202 290 -35 33 -72 78 -83 101 -11 22 -40 62 -65 90 -24 27 -47
63 -51 79 -18 72 -106 139 -201 152 l-45 6 0 -97z m9789 -38669 l34 -21 -39
-33 c-21 -18 -45 -33 -53 -33 -7 0 -29 17 -49 37 l-34 37 27 24 c31 27 58 24
114 -11z"/>
</g>
</svg>
